REM DIRINDEX 1\2,1\3,1\4,1\6,1\5\7,1\5\8
REM DIRNAME cjc114,folder01,folder02,folder03,folder04,folder05,folder06,folder07
TITLE ""
FILE "DB4500_5th_1A_20.mp3" MP3
  TRACK 01 AUDIO
    TITLE "0:"
    INDEX 01 00:00:00
  TRACK 02 AUDIO
    TITLE "2:cjc114_0582"
    INDEX 01 00:00:05
  TRACK 03 AUDIO
    TITLE "0:"
    INDEX 01 00:01:13
  TRACK 04 AUDIO
    TITLE "3:cjc114_0583"
    INDEX 01 00:01:38
  TRACK 05 AUDIO
    TITLE "0:"
    INDEX 01 00:02:51
  TRACK 06 AUDIO
    TITLE "4:cjc114_0584"
    INDEX 01 00:03:04
  TRACK 07 AUDIO
    TITLE "0:"
    INDEX 01 00:07:27
  TRACK 08 AUDIO
    TITLE "2:cjc114_0585"
    INDEX 01 00:08:01
  TRACK 09 AUDIO
    TITLE "0:"
    INDEX 01 00:09:14
  TRACK 10 AUDIO
    TITLE "3:cjc114_0586"
    INDEX 01 00:09:42
  TRACK 11 AUDIO
    TITLE "0:"
    INDEX 01 00:10:68
  TRACK 12 AUDIO
    TITLE "4:cjc114_0587"
    INDEX 01 00:11:23
  TRACK 13 AUDIO
    TITLE "0:"
    INDEX 01 00:14:35
  TRACK 14 AUDIO
    TITLE "2:cjc114_0588"
    INDEX 01 00:15:15
  TRACK 15 AUDIO
    TITLE "0:"
    INDEX 01 00:16:22
  TRACK 16 AUDIO
    TITLE "3:cjc114_0589"
    INDEX 01 00:16:48
  TRACK 17 AUDIO
    TITLE "0:"
    INDEX 01 00:17:65
  TRACK 18 AUDIO
    TITLE "4:cjc114_0590"
    INDEX 01 00:18:17
  TRACK 19 AUDIO
    TITLE "0:"
    INDEX 01 00:21:21
  TRACK 20 AUDIO
    TITLE "2:cjc114_0591"
    INDEX 01 00:21:74
  TRACK 21 AUDIO
    TITLE "0:"
    INDEX 01 00:23:12
  TRACK 22 AUDIO
    TITLE "3:cjc114_0592"
    INDEX 01 00:23:42
  TRACK 23 AUDIO
    TITLE "0:"
    INDEX 01 00:24:51
  TRACK 24 AUDIO
    TITLE "4:cjc114_0593"
    INDEX 01 00:25:03
  TRACK 25 AUDIO
    TITLE "0:"
    INDEX 01 00:27:51
  TRACK 26 AUDIO
    TITLE "2:cjc114_0594"
    INDEX 01 00:28:29
  TRACK 27 AUDIO
    TITLE "0:"
    INDEX 01 00:29:33
  TRACK 28 AUDIO
    TITLE "3:cjc114_0595"
    INDEX 01 00:29:56
  TRACK 29 AUDIO
    TITLE "0:"
    INDEX 01 00:30:69
  TRACK 30 AUDIO
    TITLE "4:cjc114_0596"
    INDEX 01 00:31:22
  TRACK 31 AUDIO
    TITLE "0:"
    INDEX 01 00:35:15
  TRACK 32 AUDIO
    TITLE "2:cjc114_0597"
    INDEX 01 00:35:68
  TRACK 33 AUDIO
    TITLE "0:"
    INDEX 01 00:37:05
  TRACK 34 AUDIO
    TITLE "3:cjc114_0598"
    INDEX 01 00:37:30
  TRACK 35 AUDIO
    TITLE "0:"
    INDEX 01 00:39:51
  TRACK 36 AUDIO
    TITLE "4:cjc114_0599"
    INDEX 01 00:40:03
  TRACK 37 AUDIO
    TITLE "0:"
    INDEX 01 00:42:70
  TRACK 38 AUDIO
    TITLE "2:cjc114_0600"
    INDEX 01 00:43:46
  TRACK 39 AUDIO
    TITLE "0:"
    INDEX 01 00:44:63
  TRACK 40 AUDIO
    TITLE "3:cjc114_0601"
    INDEX 01 00:45:18
  TRACK 41 AUDIO
    TITLE "0:"
    INDEX 01 00:47:52
  TRACK 42 AUDIO
    TITLE "4:cjc114_0602"
    INDEX 01 00:48:04
  TRACK 43 AUDIO
    TITLE "0:"
    INDEX 01 00:52:32
  TRACK 44 AUDIO
    TITLE "2:cjc114_0603"
    INDEX 01 00:53:09
  TRACK 45 AUDIO
    TITLE "0:"
    INDEX 01 00:54:11
  TRACK 46 AUDIO
    TITLE "3:cjc114_0604"
    INDEX 01 00:54:40
  TRACK 47 AUDIO
    TITLE "0:"
    INDEX 01 00:57:45
  TRACK 48 AUDIO
    TITLE "4:cjc114_0605"
    INDEX 01 00:57:72
  TRACK 49 AUDIO
    TITLE "0:"
    INDEX 01 01:01:48
  TRACK 50 AUDIO
    TITLE "2:cjc114_0606"
    INDEX 01 01:02:28
  TRACK 51 AUDIO
    TITLE "0:"
    INDEX 01 01:03:35
  TRACK 52 AUDIO
    TITLE "3:cjc114_0607"
    INDEX 01 01:04:00
  TRACK 53 AUDIO
    TITLE "0:"
    INDEX 01 01:06:57
  TRACK 54 AUDIO
    TITLE "4:cjc114_0608"
    INDEX 01 01:07:17
  TRACK 55 AUDIO
    TITLE "0:"
    INDEX 01 01:09:63
  TRACK 56 AUDIO
    TITLE "2:cjc114_0609"
    INDEX 01 01:10:57
  TRACK 57 AUDIO
    TITLE "0:"
    INDEX 01 01:12:03
  TRACK 58 AUDIO
    TITLE "3:cjc114_0610"
    INDEX 01 01:12:30
  TRACK 59 AUDIO
    TITLE "0:"
    INDEX 01 01:15:46
  TRACK 60 AUDIO
    TITLE "4:cjc114_0611"
    INDEX 01 01:16:01
  TRACK 61 AUDIO
    TITLE "0:"
    INDEX 01 01:18:68
  TRACK 62 AUDIO
    TITLE "2:cjc114_0612"
    INDEX 01 01:19:46
  TRACK 63 AUDIO
    TITLE "0:"
    INDEX 01 01:20:48
  TRACK 64 AUDIO
    TITLE "3:cjc114_0613"
    INDEX 01 01:21:00
  TRACK 65 AUDIO
    TITLE "0:"
    INDEX 01 01:24:06
  TRACK 66 AUDIO
    TITLE "4:cjc114_0614"
    INDEX 01 01:24:36
  TRACK 67 AUDIO
    TITLE "0:"
    INDEX 01 01:27:50
